<svg width="399" height="416" viewBox="0 0 399 416" fill="none" xmlns="http://www.w3.org/2000/svg">
<path d="M398.741 416H0C8.74904 373.116 72.8394 286.844 199.076 284.835C325.312 282.826 380.306 371.441 398.741 416Z" fill="#5B7FA1"/>
<path d="M194.306 328.835C172.101 328.835 154.985 303.135 149.202 290.67C177.344 283.731 218.85 284.759 238.254 287.586C238.254 301.464 216.511 328.835 194.306 328.835Z" fill="#004079"/>
<path d="M77.2307 416V379.072C76.9479 378.242 77.7393 377.412 79.7753 377.412C81.8113 377.412 82.3203 378.242 82.3203 379.072V416H77.2307Z" fill="#041C42"/>
<path d="M308.758 416V379.072C308.476 378.242 309.267 377.412 311.303 377.412C313.339 377.412 313.848 378.242 313.848 379.072V416H308.758Z" fill="#041C42"/>
<path d="M138.023 243.638C99.7808 193.985 102.813 139.938 109.11 119.121C174.183 40.1695 249.562 78.0003 279.117 106.785C292.995 165.689 273.334 221.022 261.769 241.325L199.703 162.297L138.023 243.638Z" fill="#041C42"/>
<path fill-rule="evenodd" clip-rule="evenodd" d="M130.844 188.892C139.155 208.523 150.564 226.379 165.594 235.957L175.802 296.452C179.657 320.353 210.883 319.197 214.352 296.452L221.907 236.015C240.282 226.814 251.472 209.656 258.968 188.412C262.305 194.716 270.999 194.644 276.419 191.595C282.587 188.126 287.984 176.175 281.045 163.839C276.354 155.5 270.048 158.318 266.268 161.873C269.52 146.784 271.838 130.665 274.106 114.495C246.607 81.5984 176.034 37.5482 113.736 124.518C115.322 137.044 118.6 153.377 123.861 169.902C117.257 166.167 106.312 163.597 106.026 178.488C105.718 194.525 114.636 198.02 119.133 197.763C122.22 198.628 128.7 197.973 130.844 188.892Z" fill="#A1C9FF"/>
<path d="M185.054 243.253C205.717 244.795 218.336 239.012 222.062 235.928L216.665 278.334L185.054 243.253Z" fill="#638BC0"/>
<path d="M212.425 40.0924L158.069 47.0314C137.406 20.5088 159.675 0 179.657 0C218.208 0 217.179 27.2423 212.425 40.0924Z" fill="#004079"/>
<path d="M267.937 73.631L114.121 89.4366C114.121 72.089 132.857 34.6951 187.752 31.6111C242.648 28.5271 263.311 58.9819 267.937 73.631Z" fill="#5B7FA1"/>
<path d="M281.044 116.037C180.196 92.9066 124.915 116.422 106.796 128.758C95.3855 120.432 98.9579 112.31 103.712 108.327C92.6099 102.775 99.0864 90.3366 103.712 87.895C190.836 44.3331 236.711 67.0778 264.853 67.8488C287.366 68.4656 283.229 83.783 278.346 91.3645C286.981 100.308 283.743 112.567 281.044 116.037Z" fill="#004079"/>
<path d="M228.615 188.897C224.76 203.546 209.726 205.859 200.474 205.859C165.932 205.859 165.007 188.126 168.862 179.645C171.315 174.248 180.042 172.551 189.294 176.561C198.546 180.57 207.413 178.91 213.195 176.561C220.905 173.428 232.712 173.328 228.615 188.897Z" fill="#041C42"/>
<path d="M150.955 168.851C152.734 167.516 154.296 167.309 154.81 167.309C155.838 167.309 157.585 167.848 156.352 170.007C155.471 171.549 152.754 171.935 151.726 171.549C150.469 171.078 149.798 169.718 150.955 168.851Z" fill="#041C42"/>
<path d="M250.504 144.004C253.318 143.386 255.271 143.98 255.877 144.256C257.089 144.808 258.86 146.383 256.246 148.266C254.379 149.611 250.969 148.606 249.964 147.6C248.735 146.369 248.674 144.406 250.504 144.004Z" fill="#041C42"/>
<path d="M182.356 199.306C193.535 202.39 214.352 204.317 222.833 192.752C217.436 184.657 189.295 184.271 182.356 199.306Z" fill="#A1C9FF"/>
<path d="M138.491 161.652C139.725 159.801 142.347 159.339 143.503 159.724C144.75 160.139 146.202 161.343 144.66 163.194C143.118 165.044 140.676 164.993 139.648 164.736C138.748 164.479 137.258 163.502 138.491 161.652Z" fill="#041C42"/>
<path d="M245.991 156.875C247.714 155.769 250.113 156.344 250.956 157.094C251.866 157.902 252.663 159.45 250.677 160.442C248.691 161.434 246.633 160.493 245.852 159.898C245.18 159.351 244.267 157.98 245.991 156.875Z" fill="#041C42"/>
<path d="M155.37 154.587C154.355 152.048 156.527 151.503 158.455 151.503C163.697 151.503 163.297 153.985 162.695 154.587C161.153 156.129 156.604 157.671 155.37 154.587Z" fill="#041C42"/>
<path d="M240.36 149.417C240.383 147.256 238.649 147.454 237.247 147.988C233.433 149.441 234.425 151.169 235.032 151.447C236.589 152.162 240.333 152.043 240.36 149.417Z" fill="#041C42"/>
<path d="M180.814 144.949C181.291 138.396 192.764 137.625 198.547 137.625C203.558 137.625 208.827 138.267 210.883 138.781C213.839 139.809 219.364 140.709 219.364 144.949C219.364 148.419 216.666 149.576 215.509 151.888C214.738 154.202 217.436 155.358 218.593 154.587C219.826 153.353 221.518 150.798 222.448 148.804C225.147 143.022 220.52 138.396 216.28 136.468C207.413 133.384 195.386 132.613 185.825 135.697C176.265 138.781 176.188 145.463 177.344 148.419C178.115 150.39 180.968 154.279 183.127 154.587C184.669 154.807 185.645 152.756 184.669 151.888C181.199 148.804 180.673 146.877 180.814 144.949Z" fill="#041C42"/>
<path d="M165.392 121.366C167.888 116.746 171.42 115.681 174.709 118.854C177.998 122.027 177.209 131.489 171.728 131.952C166.248 132.415 162.896 125.986 165.392 121.366Z" fill="#041C42"/>
<path d="M233.164 119.824C230.668 115.204 227.136 114.139 223.847 117.312C220.558 120.485 221.348 129.947 226.828 130.41C232.309 130.873 235.66 124.444 233.164 119.824Z" fill="#041C42"/>
</svg>
