<svg width="1440" height="800" viewBox="0 0 1440 800" fill="none" xmlns="http://www.w3.org/2000/svg">
<path d="M218.136 595.487L175.238 570.753L346.091 471.818L388.743 496.552L218.136 595.487Z" fill="#F5F5F5"/>
<path d="M560.337 793.358L517.438 768.624L688.292 669.689L730.944 694.423L560.337 793.358Z" fill="#F5F5F5"/>
<path d="M713.933 298.682L671.281 323.416L1397.35 743.89L1440 719.156L713.933 298.682Z" fill="#F5F5F5"/>
<path d="M541.846 199.747L499.194 224.481L1225.26 644.955L1267.91 620.221L541.846 199.747Z" fill="#F5F5F5"/>
<path d="M132.586 348.15L89.9338 372.883L816.001 793.357L858.653 768.624L132.586 348.15Z" fill="#F5F5F5"/>
<path d="M346.338 521.286L4.63013 323.416L47.282 298.682L346.338 471.819L816.001 199.747L858.653 224.481L346.338 521.286Z" fill="#F5F5F5"/>
<path d="M688.046 719.156L346.338 521.286L388.99 496.552L688.046 669.688L1157.71 397.617L1200.36 422.351L688.046 719.156Z" fill="#F5F5F5"/>
<path d="M699.884 546.433L620.078 592.645V523.326L699.884 477.113V546.433Z" fill="#F5F5F5"/>
<path d="M540.272 546.433L620.078 592.645V523.326L540.272 477.113V546.433Z" fill="#ECECEC"/>
<path d="M699.884 477.114L620.078 523.326L580.232 477.114L660.039 430.901L699.884 477.114Z" fill="#F5F5F5"/>
<path d="M620.078 523.326L540.272 477.113H580.233L620.078 523.326Z" fill="#ECECEC"/>
<path d="M592.094 532.338L568.141 519.052V562.492L592.094 576.355V532.338Z" fill="#F5F5F5"/>
<path d="M642.189 531.991L659.808 522.171V541.696L642.189 551.516V531.991Z" fill="#ECECEC"/>
<path d="M649.904 536.585V527.486L651.862 526.33V535.485L659.923 530.952V532.685L651.862 537.269V546.317L649.904 547.473V538.382L641.843 542.967V541.118L649.904 536.585Z" fill="#F5F5F5"/>
<path d="M665.221 517.666L682.84 507.845V527.37L665.221 537.19V517.666Z" fill="#ECECEC"/>
<path d="M672.937 522.26V513.16L674.894 512.004V521.159L682.956 516.626V518.359L674.894 522.943V531.992L672.937 533.147V524.057L664.875 528.641V526.793L672.937 522.26Z" fill="#F5F5F5"/>
<path d="M580.233 477.114H540.272L620.193 430.901H660.039L580.233 477.114Z" fill="#F5F5F5"/>
<path d="M346.646 440.323V314.696L455.121 251.882V377.509L346.646 440.323Z" fill="#F5F5F5"/>
<path d="M238.171 251.882L346.646 314.696V440.323L238.171 377.509V251.882Z" fill="#ECECEC"/>
<path d="M428.824 278.735L447.138 267.9V289.099L428.824 299.777V278.735Z" fill="#ECECEC"/>
<path d="M263.998 278.735L245.685 267.9V289.099L263.998 299.777V278.735Z" fill="#F5F5F5"/>
<path d="M263.998 321.134L245.685 310.299V331.498L263.998 342.177V321.134Z" fill="#F5F5F5"/>
<path d="M263.998 361.649L245.685 350.813V372.013L263.998 382.691V361.649Z" fill="#F5F5F5"/>
<path d="M428.824 321.134L447.138 310.299V331.498L428.824 342.177V321.134Z" fill="#ECECEC"/>
<path d="M428.824 363.533L447.138 352.698V373.897L428.824 384.576V363.533Z" fill="#ECECEC"/>
<path d="M392.196 299.778L410.51 288.942V310.142L392.196 320.82V299.778Z" fill="#ECECEC"/>
<path d="M300.626 299.778L282.312 288.942V310.142L300.626 320.82V299.778Z" fill="#F5F5F5"/>
<path d="M300.626 342.177L282.312 331.341V352.541L300.626 363.219V342.177Z" fill="#F5F5F5"/>
<path d="M300.626 382.691L282.312 371.856V403.058L300.313 413.47L300.626 382.691Z" fill="#F5F5F5"/>
<path d="M392.196 342.177L410.51 331.341V352.541L392.196 363.219V342.177Z" fill="#ECECEC"/>
<path d="M392.196 384.576L410.51 373.74V394.94L392.196 405.618V384.576Z" fill="#ECECEC"/>
<path d="M355.568 321.134L373.882 310.299V331.498L355.568 342.177V321.134Z" fill="#ECECEC"/>
<path d="M363.803 325.835V316.508L365.803 315.324V324.707L374.038 320.061V321.837L365.803 326.536V335.81L363.803 336.995V327.677L355.568 332.376V330.481L363.803 325.835Z" fill="#F5F5F5"/>
<path d="M400.431 304.479V295.151L402.431 293.967V303.35L410.666 298.704V300.48L402.431 305.179V314.454L400.431 315.638V306.321L392.196 311.02V309.125L400.431 304.479Z" fill="#F5F5F5"/>
<path d="M437.059 283.436V274.109L439.059 272.925V282.308L447.294 277.662V279.438L439.059 284.137V293.411L437.059 294.595V285.278L428.824 289.977V288.082L437.059 283.436Z" fill="#F5F5F5"/>
<path d="M337.254 321.134L318.94 310.299V331.498L337.254 342.177V321.134Z" fill="#F5F5F5"/>
<path d="M337.254 363.533L318.94 352.698V373.897L337.254 384.576V363.533Z" fill="#F5F5F5"/>
<path d="M337.254 404.048L318.94 393.213V414.412L337.254 425.09V404.048Z" fill="#F5F5F5"/>
<path d="M355.568 363.533L373.882 352.698V373.897L355.568 384.576V363.533Z" fill="#ECECEC"/>
<path d="M329.175 325.835V316.508L327.175 315.324V324.707L318.94 320.061V321.837L327.175 326.536V335.81L329.175 336.995V327.677L337.411 332.376V330.481L329.175 325.835Z" fill="#ECECEC"/>
<path d="M328.862 368.234V358.907L326.862 357.723V367.106L318.627 362.46V364.236L326.862 368.935V378.21L328.862 379.394V370.076L337.098 374.775V372.881L328.862 368.234Z" fill="#ECECEC"/>
<path d="M328.862 408.749V399.422L326.862 398.238V407.621L318.627 402.974V404.751L326.862 409.45V418.724L328.862 419.908V410.591L337.098 415.29V413.395L328.862 408.749Z" fill="#ECECEC"/>
<path d="M292.548 304.479V295.151L290.548 293.967V303.35L282.313 298.704V300.48L290.548 305.179V314.454L292.548 315.638V306.321L300.783 311.02V309.125L292.548 304.479Z" fill="#ECECEC"/>
<path d="M292.235 346.878V337.551L290.235 336.366V345.749L281.999 341.103V342.879L290.235 347.579V356.853L292.235 358.037V348.72L300.47 353.419V351.524L292.235 346.878Z" fill="#ECECEC"/>
<path d="M255.92 283.436V274.109L253.92 272.925V282.308L245.685 277.662V279.438L253.92 284.137V293.411L255.92 294.595V285.278L264.155 289.977V288.082L255.92 283.436Z" fill="#ECECEC"/>
<path d="M255.607 325.835V316.508L253.607 315.324V324.707L245.372 320.061V321.837L253.607 326.536V335.81L255.607 336.995V327.677L263.842 332.376V330.481L255.607 325.835Z" fill="#ECECEC"/>
<path d="M255.607 366.35V357.023L253.607 355.839V365.222L245.372 360.575V362.352L253.607 367.051V376.325L255.607 377.509V368.192L263.842 372.891V370.996L255.607 366.35Z" fill="#ECECEC"/>
<path d="M363.803 368.548V359.221L365.803 358.037V367.42L374.038 362.774V364.55L365.803 369.249V378.524L363.803 379.708V370.39L355.568 375.089V373.195L363.803 368.548Z" fill="#F5F5F5"/>
<path d="M400.431 347.192V337.865L402.431 336.68V346.063L410.666 341.417V343.193L402.431 347.893V357.167L400.431 358.351V349.034L392.196 353.733V351.838L400.431 347.192Z" fill="#F5F5F5"/>
<path d="M437.059 326.149V316.822L439.059 315.638V325.021L447.294 320.375V322.151L439.059 326.85V336.124L437.059 337.309V327.991L428.824 332.69V330.796L437.059 326.149Z" fill="#F5F5F5"/>
<path d="M355.568 405.932L373.882 395.097V416.297L355.568 426.975V405.932Z" fill="#ECECEC"/>
<path d="M363.803 410.633V401.306L365.803 400.122V409.505L374.038 404.859V406.635L365.803 411.334V420.609L363.803 421.793V412.475L355.568 417.174V415.28L363.803 410.633Z" fill="#F5F5F5"/>
<path d="M400.431 389.277V379.95L402.431 378.766V388.149L410.666 383.502V385.279L402.431 389.978V399.252L400.431 400.436V391.119L392.196 395.818V393.923L400.431 389.277Z" fill="#F5F5F5"/>
<path d="M437.059 368.234V358.907L439.059 357.723V367.106L447.294 362.46V364.236L439.059 368.935V378.21L437.059 379.394V370.076L428.824 374.775V372.881L437.059 368.234Z" fill="#F5F5F5"/>
<path d="M346.646 314.696L238.171 251.882L346.646 189.069L455.12 251.882L346.646 314.696Z" fill="#F5F5F5"/>
<path d="M678.174 251.254V125.627L786.648 62.8135V188.441L678.174 251.254Z" fill="#F5F5F5"/>
<path d="M569.699 62.8135L678.174 125.627V251.254L569.699 188.441V62.8135Z" fill="#ECECEC"/>
<path d="M760.351 89.6663L778.665 78.831V100.031L760.351 110.709V89.6663Z" fill="#ECECEC"/>
<path d="M595.526 89.6663L577.212 78.831V100.031L595.526 110.709V89.6663Z" fill="#F5F5F5"/>
<path d="M595.526 132.065L577.212 121.23V142.43L595.526 153.108V132.065Z" fill="#F5F5F5"/>
<path d="M595.526 172.58L577.212 161.745V182.944L595.526 193.623V172.58Z" fill="#F5F5F5"/>
<path d="M760.351 132.065L778.665 121.23V142.43L760.351 153.108V132.065Z" fill="#ECECEC"/>
<path d="M760.351 174.465L778.665 163.629V184.829L760.351 195.507V174.465Z" fill="#ECECEC"/>
<path d="M723.724 110.709L742.038 99.8735V121.073L723.724 131.751V110.709Z" fill="#ECECEC"/>
<path d="M632.154 110.709L613.84 99.8735V121.073L632.154 131.751V110.709Z" fill="#F5F5F5"/>
<path d="M632.154 153.108L613.84 142.273V163.472L632.154 174.151V153.108Z" fill="#F5F5F5"/>
<path d="M632.154 193.623L613.84 182.787V213.99L631.841 224.401L632.154 193.623Z" fill="#F5F5F5"/>
<path d="M723.724 153.108L742.038 142.273V163.472L723.724 174.151V153.108Z" fill="#ECECEC"/>
<path d="M723.724 195.507L742.038 184.672V205.871L723.724 216.55V195.507Z" fill="#ECECEC"/>
<path d="M687.096 132.065L705.41 121.23V142.43L687.096 153.108V132.065Z" fill="#ECECEC"/>
<path d="M695.331 136.767V127.439L697.331 126.255V135.638L705.566 130.992V132.768L697.331 137.467V146.742L695.331 147.926V138.608L687.096 143.308V141.413L695.331 136.767Z" fill="#F5F5F5"/>
<path d="M731.959 115.41V106.083L733.959 104.899V114.282L742.194 109.635V111.412L733.959 116.111V125.385L731.959 126.569V117.252L723.724 121.951V120.056L731.959 115.41Z" fill="#F5F5F5"/>
<path d="M768.587 94.3675V85.0403L770.587 83.8561V93.2391L778.822 88.5929V90.3692L770.587 95.0682V104.343L768.587 105.527V96.2094L760.352 100.908V99.0137L768.587 94.3675Z" fill="#F5F5F5"/>
<path d="M668.782 132.065L650.468 121.23V142.43L668.782 153.108V132.065Z" fill="#F5F5F5"/>
<path d="M668.782 174.465L650.468 163.629V184.829L668.782 195.507V174.465Z" fill="#F5F5F5"/>
<path d="M668.782 214.979L650.468 204.144V225.344L668.782 236.022V214.979Z" fill="#F5F5F5"/>
<path d="M687.096 174.465L705.41 163.629V184.829L687.096 195.507V174.465Z" fill="#ECECEC"/>
<path d="M660.703 136.767V127.439L658.703 126.255V135.638L650.468 130.992V132.768L658.703 137.467V146.742L660.703 147.926V138.608L668.938 143.308V141.413L660.703 136.767Z" fill="#ECECEC"/>
<path d="M660.39 179.166V169.838L658.39 168.654V178.037L650.155 173.391V175.167L658.39 179.866V189.141L660.39 190.325V181.008L668.625 185.707V183.812L660.39 179.166Z" fill="#ECECEC"/>
<path d="M660.39 219.68V210.353L658.39 209.169V218.552L650.155 213.906V215.682L658.39 220.381V229.656L660.39 230.84V221.522L668.625 226.221V224.327L660.39 219.68Z" fill="#ECECEC"/>
<path d="M624.075 115.41V106.083L622.075 104.899V114.282L613.84 109.635V111.412L622.075 116.111V125.385L624.075 126.569V117.252L632.311 121.951V120.056L624.075 115.41Z" fill="#ECECEC"/>
<path d="M623.762 157.809V148.482L621.762 147.298V156.681L613.527 152.034V153.811L621.762 158.51V167.784L623.762 168.968V159.651L631.998 164.35V162.455L623.762 157.809Z" fill="#ECECEC"/>
<path d="M587.448 94.3675V85.0403L585.448 83.8561V93.2391L577.213 88.5929V90.3692L585.448 95.0682V104.343L587.448 105.527V96.2094L595.683 100.908V99.0137L587.448 94.3675Z" fill="#ECECEC"/>
<path d="M587.134 136.767V127.439L585.134 126.255V135.638L576.899 130.992V132.768L585.134 137.467V146.742L587.134 147.926V138.608L595.37 143.308V141.413L587.134 136.767Z" fill="#ECECEC"/>
<path d="M587.134 177.281V167.954L585.134 166.77V176.153L576.899 171.507V173.283L585.134 177.982V187.256L587.134 188.441V179.123L595.37 183.822V181.928L587.134 177.281Z" fill="#ECECEC"/>
<path d="M695.331 179.48V170.153L697.331 168.968V178.351L705.566 173.705V175.481L697.331 180.18V189.455L695.331 190.639V181.322L687.096 186.021V184.126L695.331 179.48Z" fill="#F5F5F5"/>
<path d="M731.959 158.123V148.796L733.959 147.612V156.995L742.194 152.349V154.125L733.959 158.824V168.098L731.959 169.282V159.965L723.724 164.664V162.769L731.959 158.123Z" fill="#F5F5F5"/>
<path d="M768.587 137.081V127.753L770.587 126.569V135.952L778.822 131.306V133.082L770.587 137.781V147.056L768.587 148.24V138.923L760.352 143.622V141.727L768.587 137.081Z" fill="#F5F5F5"/>
<path d="M687.096 216.864L705.41 206.028V227.228L687.096 237.906V216.864Z" fill="#ECECEC"/>
<path d="M695.331 221.565V212.238L697.331 211.053V220.436L705.566 215.79V217.567L697.331 222.266V231.54L695.331 232.724V223.407L687.096 228.106V226.211L695.331 221.565Z" fill="#F5F5F5"/>
<path d="M731.959 200.208V190.881L733.959 189.697V199.08L742.194 194.434V196.21L733.959 200.909V210.183L731.959 211.368V202.05L723.724 206.749V204.855L731.959 200.208Z" fill="#F5F5F5"/>
<path d="M768.587 179.166V169.838L770.587 168.654V178.037L778.822 173.391V175.167L770.587 179.866V189.141L768.587 190.325V181.008L760.352 185.707V183.812L768.587 179.166Z" fill="#F5F5F5"/>
<path d="M678.174 125.627L569.699 62.8135L678.174 0L786.648 62.8135L678.174 125.627Z" fill="#F5F5F5"/>
<path d="M1019.41 446.918V321.291L1127.88 258.478V384.105L1019.41 446.918Z" fill="#F5F5F5"/>
<path d="M910.933 258.478L1019.41 321.291V446.918L910.933 384.105V258.478Z" fill="#ECECEC"/>
<path d="M1101.59 285.331L1119.9 274.495V295.695L1101.59 306.373V285.331Z" fill="#ECECEC"/>
<path d="M936.76 285.331L918.446 274.495V295.695L936.76 306.373V285.331Z" fill="#F5F5F5"/>
<path d="M936.76 327.73L918.446 316.894V338.094L936.76 348.772V327.73Z" fill="#F5F5F5"/>
<path d="M936.76 368.244L918.446 357.409V378.609L936.76 389.287V368.244Z" fill="#F5F5F5"/>
<path d="M1101.59 327.73L1119.9 316.894V338.094L1101.59 348.772V327.73Z" fill="#ECECEC"/>
<path d="M1101.59 370.129L1119.9 359.293V380.493L1101.59 391.171V370.129Z" fill="#ECECEC"/>
<path d="M1064.96 306.373L1083.27 295.538V316.737L1064.96 327.416V306.373Z" fill="#ECECEC"/>
<path d="M973.388 306.373L955.074 295.538V316.737L973.388 327.416V306.373Z" fill="#F5F5F5"/>
<path d="M973.388 348.772L955.074 337.937V359.136L973.388 369.815V348.772Z" fill="#F5F5F5"/>
<path d="M973.388 389.287L955.074 378.452V409.654L973.075 420.066L973.388 389.287Z" fill="#F5F5F5"/>
<path d="M1064.96 348.772L1083.27 337.937V359.136L1064.96 369.815V348.772Z" fill="#ECECEC"/>
<path d="M1064.96 391.171L1083.27 380.336V401.536L1064.96 412.214V391.171Z" fill="#ECECEC"/>
<path d="M1028.33 327.73L1046.64 316.894V338.094L1028.33 348.772V327.73Z" fill="#ECECEC"/>
<path d="M1036.56 332.431V323.104L1038.56 321.919V331.302L1046.8 326.656V328.432L1038.56 333.131V342.406L1036.56 343.59V334.273L1028.33 338.972V337.077L1036.56 332.431Z" fill="#F5F5F5"/>
<path d="M1073.19 311.074V301.747L1075.19 300.563V309.946L1083.43 305.3V307.076L1075.19 311.775V321.049L1073.19 322.234V312.916L1064.96 317.615V315.72L1073.19 311.074Z" fill="#F5F5F5"/>
<path d="M1109.82 290.032V280.705L1111.82 279.52V288.903L1120.05 284.257V286.033L1111.82 290.732V300.007L1109.82 301.191V291.874L1101.58 296.573V294.678L1109.82 290.032Z" fill="#F5F5F5"/>
<path d="M1010.02 327.73L991.702 316.894V338.094L1010.02 348.772V327.73Z" fill="#F5F5F5"/>
<path d="M1010.02 370.129L991.702 359.293V380.493L1010.02 391.171V370.129Z" fill="#F5F5F5"/>
<path d="M1010.02 410.643L991.702 399.808V421.008L1010.02 431.686V410.643Z" fill="#F5F5F5"/>
<path d="M1028.33 370.129L1046.64 359.293V380.493L1028.33 391.171V370.129Z" fill="#ECECEC"/>
<path d="M1001.94 332.431V323.104L999.937 321.919V331.302L991.701 326.656V328.432L999.937 333.131V342.406L1001.94 343.59V334.273L1010.17 338.972V337.077L1001.94 332.431Z" fill="#ECECEC"/>
<path d="M1001.62 374.83V365.503L999.624 364.318V373.701L991.388 369.055V370.832L999.624 375.531V384.805L1001.62 385.989V376.672L1009.86 381.371V379.476L1001.62 374.83Z" fill="#ECECEC"/>
<path d="M1001.62 415.345V406.017L999.624 404.833V414.216L991.388 409.57V411.346L999.624 416.045V425.32L1001.62 426.504V417.187L1009.86 421.886V419.991L1001.62 415.345Z" fill="#ECECEC"/>
<path d="M965.309 311.074V301.747L963.309 300.563V309.946L955.074 305.3V307.076L963.309 311.775V321.049L965.309 322.234V312.916L973.544 317.615V315.72L965.309 311.074Z" fill="#ECECEC"/>
<path d="M964.996 353.473V344.146L962.996 342.962V352.345L954.761 347.699V349.475L962.996 354.174V363.448L964.996 364.633V355.315L973.231 360.014V358.12L964.996 353.473Z" fill="#ECECEC"/>
<path d="M928.681 290.032V280.705L926.681 279.52V288.903L918.446 284.257V286.033L926.681 290.732V300.007L928.681 301.191V291.874L936.917 296.573V294.678L928.681 290.032Z" fill="#ECECEC"/>
<path d="M928.368 332.431V323.104L926.368 321.919V331.302L918.133 326.656V328.432L926.368 333.131V342.406L928.368 343.59V334.273L936.604 338.972V337.077L928.368 332.431Z" fill="#ECECEC"/>
<path d="M928.368 372.946V363.618L926.368 362.434V371.817L918.133 367.171V368.947L926.368 373.646V382.921L928.368 384.105V374.787L936.604 379.486V377.592L928.368 372.946Z" fill="#ECECEC"/>
<path d="M1036.56 375.144V365.817L1038.56 364.633V374.016L1046.8 369.369V371.146L1038.56 375.845V385.119L1036.56 386.303V376.986L1028.33 381.685V379.79L1036.56 375.144Z" fill="#F5F5F5"/>
<path d="M1073.19 353.787V344.46L1075.19 343.276V352.659L1083.43 348.013V349.789L1075.19 354.488V363.762L1073.19 364.947V355.629L1064.96 360.328V358.434L1073.19 353.787Z" fill="#F5F5F5"/>
<path d="M1109.82 332.745V323.418L1111.82 322.233V331.616L1120.05 326.97V328.747L1111.82 333.446V342.72L1109.82 343.904V334.587L1101.58 339.286V337.391L1109.82 332.745Z" fill="#F5F5F5"/>
<path d="M1028.33 412.528L1046.64 401.693V422.892L1028.33 433.57V412.528Z" fill="#ECECEC"/>
<path d="M1036.56 417.229V407.902L1038.56 406.718V416.101L1046.8 411.454V413.231L1038.56 417.93V427.204L1036.56 428.388V419.071L1028.33 423.77V421.875L1036.56 417.229Z" fill="#F5F5F5"/>
<path d="M1073.19 395.872V386.545L1075.19 385.361V394.744L1083.43 390.098V391.874L1075.19 396.573V405.848L1073.19 407.032V397.714L1064.96 402.413V400.519L1073.19 395.872Z" fill="#F5F5F5"/>
<path d="M1109.82 374.83V365.503L1111.82 364.318V373.701L1120.05 369.055V370.832L1111.82 375.531V384.805L1109.82 385.989V376.672L1101.58 381.371V379.476L1109.82 374.83Z" fill="#F5F5F5"/>
<path d="M1019.41 321.291L910.934 258.478L1019.41 195.664L1127.88 258.478L1019.41 321.291Z" fill="#F5F5F5"/>
<path d="M888.549 762.87V637.243L997.023 574.43V700.057L888.549 762.87Z" fill="#F5F5F5"/>
<path d="M780.074 574.43L888.549 637.243V762.87L780.074 700.057V574.43Z" fill="#ECECEC"/>
<path d="M970.726 601.283L989.04 590.447V611.647L970.726 622.325V601.283Z" fill="#ECECEC"/>
<path d="M805.901 601.283L787.587 590.447V611.647L805.901 622.325V601.283Z" fill="#F5F5F5"/>
<path d="M805.901 643.682L787.587 632.846V654.046L805.901 664.724V643.682Z" fill="#F5F5F5"/>
<path d="M805.901 684.196L787.587 673.361V694.561L805.901 705.239V684.196Z" fill="#F5F5F5"/>
<path d="M970.726 643.682L989.04 632.846V654.046L970.726 664.724V643.682Z" fill="#ECECEC"/>
<path d="M970.726 686.081L989.04 675.245V696.445L970.726 707.123V686.081Z" fill="#ECECEC"/>
<path d="M934.098 622.325L952.412 611.49V632.689L934.098 643.368V622.325Z" fill="#ECECEC"/>
<path d="M842.529 622.325L824.215 611.49V632.689L842.529 643.368V622.325Z" fill="#F5F5F5"/>
<path d="M842.529 664.724L824.215 653.889V675.088L842.529 685.767V664.724Z" fill="#F5F5F5"/>
<path d="M842.529 705.239L824.215 694.404V725.606L842.216 736.017L842.529 705.239Z" fill="#F5F5F5"/>
<path d="M934.098 664.724L952.412 653.889V675.088L934.098 685.767V664.724Z" fill="#ECECEC"/>
<path d="M934.098 707.123L952.412 696.288V717.487L934.098 728.166V707.123Z" fill="#ECECEC"/>
<path d="M897.471 643.682L915.785 632.846V654.046L897.471 664.724V643.682Z" fill="#ECECEC"/>
<path d="M905.706 648.383V639.056L907.706 637.871V647.254L915.941 642.608V644.384L907.706 649.083V658.358L905.706 659.542V650.225L897.471 654.924V653.029L905.706 648.383Z" fill="#F5F5F5"/>
<path d="M942.334 627.026V617.699L944.334 616.515V625.898L952.569 621.252V623.028L944.334 627.727V637.001L942.334 638.185V628.868L934.099 633.567V631.672L942.334 627.026Z" fill="#F5F5F5"/>
<path d="M978.961 605.984V596.656L980.961 595.472V604.855L989.196 600.209V601.985L980.961 606.684V615.959L978.961 617.143V607.825L970.726 612.525V610.63L978.961 605.984Z" fill="#F5F5F5"/>
<path d="M879.157 643.682L860.843 632.846V654.046L879.157 664.724V643.682Z" fill="#F5F5F5"/>
<path d="M879.157 686.081L860.843 675.245V696.445L879.157 707.123V686.081Z" fill="#F5F5F5"/>
<path d="M879.157 726.595L860.843 715.76V736.96L879.157 747.638V726.595Z" fill="#F5F5F5"/>
<path d="M897.471 686.081L915.785 675.245V696.445L897.471 707.123V686.081Z" fill="#ECECEC"/>
<path d="M871.078 648.383V639.056L869.078 637.871V647.254L860.843 642.608V644.384L869.078 649.083V658.358L871.078 659.542V650.225L879.313 654.924V653.029L871.078 648.383Z" fill="#ECECEC"/>
<path d="M870.765 690.782V681.455L868.765 680.271V689.654L860.53 685.007V686.784L868.765 691.483V700.757L870.765 701.941V692.624L879 697.323V695.428L870.765 690.782Z" fill="#ECECEC"/>
<path d="M870.765 731.297V721.97L868.765 720.785V730.168L860.53 725.522V727.298L868.765 731.997V741.272L870.765 742.456V733.139L879 737.838V735.943L870.765 731.297Z" fill="#ECECEC"/>
<path d="M834.45 627.026V617.699L832.45 616.515V625.898L824.215 621.252V623.028L832.45 627.727V637.001L834.45 638.185V628.868L842.686 633.567V631.672L834.45 627.026Z" fill="#ECECEC"/>
<path d="M834.137 669.425V660.098L832.137 658.914V668.297L823.902 663.651V665.427L832.137 670.126V679.4L834.137 680.585V671.267L842.373 675.966V674.072L834.137 669.425Z" fill="#ECECEC"/>
<path d="M797.822 605.984V596.656L795.822 595.472V604.855L787.587 600.209V601.985L795.822 606.684V615.959L797.822 617.143V607.825L806.058 612.525V610.63L797.822 605.984Z" fill="#ECECEC"/>
<path d="M797.509 648.383V639.056L795.509 637.871V647.254L787.274 642.608V644.384L795.509 649.083V658.358L797.509 659.542V650.225L805.745 654.924V653.029L797.509 648.383Z" fill="#ECECEC"/>
<path d="M797.509 688.898V679.57L795.509 678.386V687.769L787.274 683.123V684.899L795.509 689.598V698.873L797.509 700.057V690.739L805.745 695.438V693.544L797.509 688.898Z" fill="#ECECEC"/>
<path d="M905.706 691.096V681.769L907.706 680.585V689.968L915.941 685.321V687.098L907.706 691.797V701.071L905.706 702.255V692.938L897.471 697.637V695.742L905.706 691.096Z" fill="#F5F5F5"/>
<path d="M942.334 669.739V660.412L944.334 659.228V668.611L952.569 663.965V665.741L944.334 670.44V679.714L942.334 680.899V671.581L934.099 676.28V674.386L942.334 669.739Z" fill="#F5F5F5"/>
<path d="M978.961 648.697V639.37L980.961 638.186V647.569L989.196 642.922V644.699L980.961 649.398V658.672L978.961 659.856V650.539L970.726 655.238V653.343L978.961 648.697Z" fill="#F5F5F5"/>
<path d="M897.471 728.48L915.785 717.645V738.844L897.471 749.522V728.48Z" fill="#ECECEC"/>
<path d="M905.706 733.181V723.854L907.706 722.67V732.053L915.941 727.406V729.183L907.706 733.882V743.156L905.706 744.34V735.023L897.471 739.722V737.827L905.706 733.181Z" fill="#F5F5F5"/>
<path d="M942.334 711.824V702.497L944.334 701.313V710.696L952.569 706.05V707.826L944.334 712.525V721.8L942.334 722.984V713.666L934.099 718.365V716.471L942.334 711.824Z" fill="#F5F5F5"/>
<path d="M978.961 690.782V681.455L980.961 680.271V689.654L989.196 685.007V686.784L980.961 691.483V700.757L978.961 701.941V692.624L970.726 697.323V695.428L978.961 690.782Z" fill="#F5F5F5"/>
<path d="M888.549 637.243L780.074 574.43L888.549 511.616L997.023 574.43L888.549 637.243Z" fill="#F5F5F5"/>
<path fill-rule="evenodd" clip-rule="evenodd" d="M531.193 246.857C529.002 240.262 534.637 233.352 541.837 233.352C546.846 233.352 551.229 236.493 552.481 240.576C557.49 239.634 562.499 242.774 563.751 247.485C577.839 245.601 585.978 262.561 575.021 271.354C578.778 274.809 576.9 280.776 571.891 281.719C575.648 290.513 565.63 298.364 557.49 294.909L549.664 302.761L553.107 327.573L541.524 327.258L542.463 305.588L534.95 293.653C526.184 297.422 515.854 291.455 515.854 281.405C515.854 277.636 517.732 274.181 520.236 271.668C513.662 267.272 516.48 257.535 524.619 257.221C521.175 252.51 525.245 246.229 531.193 246.857ZM554.673 293.653C552.794 294.281 550.603 294.595 548.725 294.281L549.038 298.678L554.673 293.653ZM543.403 293.025C542.15 292.397 540.898 291.769 539.959 290.827C539.333 291.455 538.394 292.083 537.455 292.711L543.09 299.935L543.403 293.025Z" fill="#F5F5F5"/>
<path fill-rule="evenodd" clip-rule="evenodd" d="M752.838 415.197C750.647 408.602 756.282 401.693 763.482 401.693C768.491 401.693 772.874 404.833 774.126 408.916C779.135 407.974 784.144 411.115 785.396 415.826C799.484 413.941 807.623 430.901 796.666 439.695C800.423 443.149 798.545 449.117 793.536 450.059C797.293 458.853 787.275 466.704 779.135 463.25L771.309 471.101L774.752 495.913L763.169 495.599L764.108 473.928L756.595 461.993C747.829 465.762 737.499 459.795 737.499 449.745C737.499 445.976 739.377 442.521 741.881 440.009C735.307 435.612 738.125 425.876 746.264 425.562C742.821 420.851 746.89 414.569 752.838 415.197ZM776.318 461.993C774.439 462.622 772.248 462.936 770.37 462.622L770.683 467.019L776.318 461.993ZM765.048 461.365C763.795 460.737 762.543 460.109 761.604 459.167C760.978 459.795 760.039 460.423 759.1 461.051L764.735 468.275L765.048 461.365Z" fill="#F5F5F5"/>
<path fill-rule="evenodd" clip-rule="evenodd" d="M788.84 224.244C786.648 217.649 792.283 210.739 799.484 210.739C804.493 210.739 808.876 213.88 810.128 217.963C815.137 217.021 820.146 220.161 821.398 224.872C835.485 222.988 843.625 239.948 832.668 248.741C836.425 252.196 834.546 258.164 829.537 259.106C833.294 267.9 823.276 275.751 815.137 272.297L807.31 280.148L810.754 304.96L799.171 304.646L800.11 282.975L792.597 271.04C783.831 274.809 773.5 268.842 773.5 258.792C773.5 255.023 775.378 251.568 777.883 249.056C771.309 244.659 774.126 234.923 782.266 234.608C778.822 229.897 782.892 223.616 788.84 224.244ZM812.319 271.04C810.441 271.668 808.249 271.983 806.371 271.668L806.684 276.065L812.319 271.04ZM801.049 270.412C799.797 269.784 798.545 269.156 797.605 268.214C796.979 268.842 796.04 269.47 795.101 270.098L800.736 277.322L801.049 270.412Z" fill="#F5F5F5"/>
<path fill-rule="evenodd" clip-rule="evenodd" d="M1170.46 415.197C1168.27 408.602 1173.9 401.693 1181.1 401.693C1186.11 401.693 1190.49 404.833 1191.74 408.916C1196.75 407.974 1201.76 411.115 1203.02 415.826C1217.1 413.941 1225.24 430.901 1214.29 439.695C1218.04 443.149 1216.16 449.117 1211.15 450.059C1214.91 458.853 1204.89 466.704 1196.75 463.25L1188.93 471.101L1192.37 495.913L1180.79 495.599L1181.73 473.928L1174.21 461.993C1165.45 465.762 1155.12 459.795 1155.12 449.745C1155.12 445.976 1157 442.521 1159.5 440.009C1152.93 435.612 1155.74 425.876 1163.88 425.562C1160.44 420.851 1164.51 414.569 1170.46 415.197ZM1193.94 461.993C1192.06 462.622 1189.87 462.936 1187.99 462.622L1188.3 467.019L1193.94 461.993ZM1182.67 461.365C1181.41 460.737 1180.16 460.109 1179.22 459.167C1178.6 459.795 1177.66 460.423 1176.72 461.051L1182.35 468.275L1182.67 461.365Z" fill="#F5F5F5"/>
<path fill-rule="evenodd" clip-rule="evenodd" d="M1120.99 624.68C1118.8 618.085 1124.44 611.175 1131.64 611.175C1136.65 611.175 1141.03 614.316 1142.28 618.399C1147.29 617.457 1152.3 620.598 1153.55 625.309C1167.64 623.424 1175.78 640.384 1164.82 649.178C1168.58 652.632 1166.7 658.6 1161.69 659.542C1165.45 668.336 1155.43 676.187 1147.29 672.733L1139.46 680.584L1142.91 705.396L1131.33 705.082L1132.26 683.411L1124.75 671.476C1115.99 675.245 1105.65 669.278 1105.65 659.228C1105.65 655.459 1107.53 652.004 1110.04 649.492C1103.46 645.095 1106.28 635.359 1114.42 635.045C1110.98 630.334 1115.05 624.052 1120.99 624.68ZM1144.47 671.476C1142.6 672.105 1140.4 672.419 1138.53 672.105L1138.84 676.502L1144.47 671.476ZM1133.2 670.848C1131.95 670.22 1130.7 669.592 1129.76 668.65C1129.13 669.278 1128.19 669.906 1127.26 670.534L1132.89 677.758L1133.2 670.848Z" fill="#F5F5F5"/>
<path fill-rule="evenodd" clip-rule="evenodd" d="M1020.82 685.61C1018.62 679.014 1024.26 672.105 1031.46 672.105C1036.47 672.105 1040.85 675.245 1042.1 679.328C1047.11 678.386 1052.12 681.527 1053.37 686.238C1067.46 684.353 1075.6 701.313 1064.64 710.107C1068.4 713.562 1066.52 719.529 1061.51 720.471C1065.27 729.265 1055.25 737.117 1047.11 733.662L1039.29 741.514L1042.73 766.325L1031.15 766.011L1032.09 744.34L1024.57 732.406C1015.81 736.174 1005.48 730.207 1005.48 720.157C1005.48 716.388 1007.35 712.933 1009.86 710.421C1003.28 706.024 1006.1 696.288 1014.24 695.974C1010.8 691.263 1014.87 684.981 1020.82 685.61ZM1044.3 732.406C1042.42 733.034 1040.23 733.348 1038.35 733.034L1038.66 737.431L1044.3 732.406ZM1033.03 731.778C1031.77 731.149 1030.52 730.521 1029.58 729.579C1028.96 730.207 1028.02 730.835 1027.08 731.463L1032.71 738.687L1033.03 731.778Z" fill="#F5F5F5"/>
<path fill-rule="evenodd" clip-rule="evenodd" d="M595.37 718.901C593.179 712.305 598.814 705.396 606.014 705.396C611.023 705.396 615.406 708.537 616.658 712.619C621.667 711.677 626.676 714.818 627.928 719.529C642.016 717.645 650.155 734.604 639.198 743.398C642.955 746.853 641.077 752.82 636.068 753.762C639.824 762.556 629.806 770.408 621.667 766.953L613.841 774.805L617.284 799.616L605.701 799.302L606.64 777.631L599.127 765.697C590.361 769.466 580.03 763.498 580.03 753.448C580.03 749.679 581.909 746.225 584.413 743.712C577.839 739.315 580.656 729.579 588.796 729.265C585.352 724.554 589.422 718.273 595.37 718.901ZM618.849 765.697C616.971 766.325 614.78 766.639 612.901 766.325L613.214 770.722L618.849 765.697ZM607.579 765.069C606.327 764.441 605.075 763.812 604.136 762.87C603.51 763.498 602.57 764.127 601.631 764.755L607.266 771.978L607.579 765.069Z" fill="#F5F5F5"/>
<path fill-rule="evenodd" clip-rule="evenodd" d="M370.908 542.709C368.716 536.113 374.351 529.204 381.552 529.204C386.561 529.204 390.943 532.345 392.196 536.428C397.205 535.485 402.213 538.626 403.466 543.337C417.553 541.453 425.693 558.412 414.736 567.206C418.492 570.661 416.614 576.628 411.605 577.57C415.362 586.364 405.344 594.216 397.205 590.761L389.378 598.613L392.822 623.424L381.239 623.11L382.178 601.44L374.664 589.505C365.899 593.274 355.568 587.306 355.568 577.256C355.568 573.488 357.446 570.033 359.951 567.52C353.376 563.123 356.194 553.387 364.333 553.073C360.89 548.362 364.96 542.081 370.908 542.709ZM394.387 589.505C392.509 590.133 390.317 590.447 388.439 590.133L388.752 594.53L394.387 589.505ZM383.117 588.877C381.865 588.249 380.612 587.621 379.673 586.678C379.047 587.306 378.108 587.935 377.169 588.563L382.804 595.786L383.117 588.877Z" fill="#F5F5F5"/>
<path fill-rule="evenodd" clip-rule="evenodd" d="M482.356 429.33C480.165 422.735 485.8 415.826 493 415.826C498.009 415.826 502.392 418.966 503.644 423.049C508.653 422.107 513.662 425.248 514.914 429.959C529.002 428.074 537.142 445.034 526.185 453.828C529.941 457.282 528.063 463.25 523.054 464.192C526.811 472.986 516.793 480.838 508.653 477.383L500.827 485.234L504.27 510.046L492.687 509.732L493.627 488.061L486.113 476.127C477.348 479.895 467.017 473.928 467.017 463.878C467.017 460.109 468.895 456.654 471.399 454.142C464.825 449.745 467.643 440.009 475.782 439.695C472.339 434.984 476.408 428.702 482.356 429.33ZM505.836 476.127C503.957 476.755 501.766 477.069 499.888 476.755L500.201 481.152L505.836 476.127ZM494.566 475.498C493.313 474.87 492.061 474.242 491.122 473.3C490.496 473.928 489.557 474.556 488.618 475.184L494.253 482.408L494.566 475.498Z" fill="#F5F5F5"/>
<path fill-rule="evenodd" clip-rule="evenodd" d="M476.095 279.834C473.904 273.239 479.539 266.329 486.739 266.329C491.748 266.329 496.131 269.47 497.383 273.553C502.392 272.611 507.401 275.751 508.653 280.462C522.741 278.578 530.88 295.538 519.923 304.332C523.68 307.786 521.802 313.754 516.793 314.696C520.549 323.49 510.532 331.341 502.392 327.887L494.566 335.738L498.009 360.55L486.426 360.236L487.365 338.565L479.852 326.63C471.086 330.399 460.755 324.432 460.755 314.382C460.755 310.613 462.634 307.158 465.138 304.646C458.564 300.249 461.381 290.513 469.521 290.198C466.077 285.487 470.147 279.206 476.095 279.834ZM499.575 326.63C497.696 327.258 495.505 327.573 493.626 327.258L493.939 331.655L499.575 326.63ZM488.304 326.002C487.052 325.374 485.8 324.746 484.861 323.804C484.235 324.432 483.296 325.06 482.356 325.688L487.991 332.912L488.304 326.002Z" fill="#F5F5F5"/>
<path fill-rule="evenodd" clip-rule="evenodd" d="M801.988 447.232C799.797 440.637 805.432 433.727 812.632 433.727C817.641 433.727 822.024 436.868 823.276 440.951C828.285 440.009 833.294 443.149 834.546 447.86C848.634 445.976 856.773 462.936 845.816 471.73C849.573 475.184 847.695 481.152 842.686 482.094C846.442 490.888 836.425 498.739 828.285 495.285L820.459 503.136L823.902 527.948L812.319 527.634L813.258 505.963L805.745 494.028C796.979 497.797 786.648 491.83 786.648 481.78C786.648 478.011 788.527 474.556 791.031 472.044C784.457 467.647 787.275 457.911 795.414 457.597C791.97 452.886 796.04 446.604 801.988 447.232ZM825.468 494.028C823.589 494.657 821.398 494.971 819.52 494.657L819.833 499.053L825.468 494.028ZM814.198 493.4C812.945 492.772 811.693 492.144 810.754 491.202C810.128 491.83 809.189 492.458 808.249 493.086L813.884 500.31L814.198 493.4Z" fill="#F5F5F5"/>
<path fill-rule="evenodd" clip-rule="evenodd" d="M731.237 495.599C729.046 489.003 734.681 482.094 741.881 482.094C746.89 482.094 751.273 485.234 752.525 489.317C757.534 488.375 762.543 491.516 763.795 496.227C777.883 494.342 786.022 511.302 775.065 520.096C778.822 523.551 776.944 529.518 771.935 530.46C775.691 539.254 765.674 547.106 757.534 543.651L749.708 551.503L753.151 576.314L741.568 576L742.507 554.329L734.994 542.395C726.228 546.164 715.897 540.196 715.897 530.146C715.897 526.377 717.776 522.923 720.28 520.41C713.706 516.013 716.524 506.277 724.663 505.963C721.219 501.252 725.289 494.971 731.237 495.599ZM754.717 542.395C752.838 543.023 750.647 543.337 748.769 543.023L749.082 547.42L754.717 542.395ZM743.447 541.767C742.194 541.138 740.942 540.51 740.003 539.568C739.377 540.196 738.438 540.824 737.498 541.453L743.133 548.676L743.447 541.767Z" fill="#F5F5F5"/>
<path fill-rule="evenodd" clip-rule="evenodd" d="M1056.82 594.53C1054.63 587.935 1060.26 581.025 1067.46 581.025C1072.47 581.025 1076.85 584.166 1078.11 588.249C1083.11 587.306 1088.12 590.447 1089.38 595.158C1103.46 593.274 1111.6 610.233 1100.65 619.027C1104.4 622.482 1102.52 628.449 1097.51 629.391C1101.27 638.185 1091.25 646.037 1083.11 642.582L1075.29 650.434L1078.73 675.245L1067.15 674.931L1068.09 653.261L1060.57 641.326C1051.81 645.095 1041.48 639.128 1041.48 629.077C1041.48 625.309 1043.36 621.854 1045.86 619.341C1039.29 614.944 1042.1 605.208 1050.24 604.894C1046.8 600.183 1050.87 593.902 1056.82 594.53ZM1080.3 641.326C1078.42 641.954 1076.23 642.268 1074.35 641.954L1074.66 646.351L1080.3 641.326ZM1069.03 640.698C1067.77 640.07 1066.52 639.442 1065.58 638.499C1064.96 639.128 1064.02 639.756 1063.08 640.384L1068.71 647.607L1069.03 640.698Z" fill="#F5F5F5"/>
<path fill-rule="evenodd" clip-rule="evenodd" d="M1209.59 452.886C1207.4 446.29 1213.03 439.381 1220.23 439.381C1225.24 439.381 1229.63 442.521 1230.88 446.604C1235.89 445.662 1240.9 448.803 1242.15 453.514C1256.23 451.629 1264.37 468.589 1253.42 477.383C1257.17 480.838 1255.3 486.805 1250.29 487.747C1254.04 496.541 1244.03 504.393 1235.89 500.938L1228.06 508.79L1231.5 533.601L1219.92 533.287L1220.86 511.616L1213.35 499.682C1204.58 503.45 1194.25 497.483 1194.25 487.433C1194.25 483.664 1196.13 480.209 1198.63 477.697C1192.06 473.3 1194.88 463.564 1203.02 463.25C1199.57 458.539 1203.64 452.257 1209.59 452.886ZM1233.07 499.682C1231.19 500.31 1229 500.624 1227.12 500.31L1227.43 504.707L1233.07 499.682ZM1221.8 499.053C1220.55 498.425 1219.29 497.797 1218.35 496.855C1217.73 497.483 1216.79 498.111 1215.85 498.739L1221.49 505.963L1221.8 499.053Z" fill="#F5F5F5"/>
<path fill-rule="evenodd" clip-rule="evenodd" d="M830.163 260.362C827.972 253.767 833.607 246.857 840.807 246.857C845.816 246.857 850.199 249.998 851.451 254.081C856.46 253.138 861.469 256.279 862.721 260.99C876.809 259.106 884.948 276.065 873.991 284.859C877.748 288.314 875.87 294.281 870.861 295.223C874.617 304.017 864.599 311.869 856.46 308.414L848.633 316.266L852.077 341.077L840.494 340.763L841.433 319.093L833.92 307.158C825.154 310.927 814.823 304.96 814.823 294.909C814.823 291.141 816.702 287.686 819.206 285.173C812.632 280.776 815.449 271.04 823.589 270.726C820.145 266.015 824.215 259.734 830.163 260.362ZM853.642 307.158C851.764 307.786 849.573 308.1 847.694 307.786L848.007 312.183L853.642 307.158ZM842.372 306.53C841.12 305.902 839.868 305.274 838.929 304.331C838.303 304.96 837.363 305.588 836.424 306.216L842.059 313.439L842.372 306.53Z" fill="#F5F5F5"/>
<path fill-rule="evenodd" clip-rule="evenodd" d="M324.888 562.809C322.697 556.214 328.332 549.304 335.532 549.304C340.541 549.304 344.924 552.445 346.176 556.528C351.185 555.586 356.194 558.726 357.446 563.437C371.534 561.553 379.673 578.513 368.716 587.306C372.473 590.761 370.595 596.729 365.586 597.671C369.342 606.465 359.325 614.316 351.185 610.862L343.359 618.713L346.802 643.525L335.219 643.211L336.158 621.54L328.645 609.605C319.879 613.374 309.548 607.407 309.548 597.357C309.548 593.588 311.427 590.133 313.931 587.621C307.357 583.224 310.174 573.488 318.314 573.173C314.87 568.462 318.94 562.181 324.888 562.809ZM348.368 609.605C346.489 610.233 344.298 610.548 342.419 610.233L342.732 614.63L348.368 609.605ZM337.097 608.977C335.845 608.349 334.593 607.721 333.654 606.779C333.028 607.407 332.088 608.035 331.149 608.663L336.784 615.887L337.097 608.977Z" fill="#F5F5F5"/>
<path fill-rule="evenodd" clip-rule="evenodd" d="M420.997 592.646C418.806 586.05 424.441 579.141 431.641 579.141C436.65 579.141 441.033 582.281 442.285 586.364C447.294 585.422 452.303 588.563 453.555 593.274C467.643 591.389 475.782 608.349 464.825 617.143C468.582 620.598 466.703 626.565 461.695 627.507C465.451 636.301 455.433 644.153 447.294 640.698L439.467 648.55L442.911 673.361L431.328 673.047L432.267 651.376L424.754 639.442C415.988 643.21 405.657 637.243 405.657 627.193C405.657 623.424 407.536 619.969 410.04 617.457C403.466 613.06 406.283 603.324 414.423 603.01C410.979 598.299 415.049 592.017 420.997 592.646ZM444.476 639.442C442.598 640.07 440.407 640.384 438.528 640.07L438.841 644.467L444.476 639.442ZM433.206 638.813C431.954 638.185 430.702 637.557 429.763 636.615C429.137 637.243 428.197 637.871 427.258 638.499L432.893 645.723L433.206 638.813Z" fill="#F5F5F5"/>
<path fill-rule="evenodd" clip-rule="evenodd" d="M105.122 413.941C102.93 407.346 108.565 400.436 115.766 400.436C120.775 400.436 125.158 403.577 126.41 407.66C131.419 406.718 136.428 409.858 137.68 414.569C151.767 412.685 159.907 429.644 148.95 438.438C152.707 441.893 150.828 447.86 145.819 448.803C149.576 457.596 139.558 465.448 131.419 461.993L123.592 469.845L127.036 494.656L115.453 494.342L116.392 472.672L108.879 460.737C100.113 464.506 89.782 458.539 89.782 448.488C89.782 444.72 91.6603 441.265 94.1648 438.752C87.5906 434.355 90.4081 424.619 98.5476 424.305C95.104 419.594 99.1737 413.313 105.122 413.941ZM128.601 460.737C126.723 461.365 124.531 461.679 122.653 461.365L122.966 465.762L128.601 460.737ZM117.331 460.109C116.079 459.481 114.827 458.853 113.887 457.911C113.261 458.539 112.322 459.167 111.383 459.795L117.018 467.018L117.331 460.109Z" fill="#F5F5F5"/>
<path fill-rule="evenodd" clip-rule="evenodd" d="M149.263 444.406C147.072 437.81 152.707 430.901 159.907 430.901C164.916 430.901 169.299 434.041 170.551 438.124C175.56 437.182 180.569 440.323 181.821 445.034C195.909 443.149 204.048 460.109 193.091 468.903C196.848 472.358 194.969 478.325 189.96 479.267C193.717 488.061 183.699 495.913 175.56 492.458L167.733 500.31L171.177 525.121L159.594 524.807L160.533 503.136L153.02 491.202C144.254 494.971 133.923 489.003 133.923 478.953C133.923 475.184 135.801 471.73 138.306 469.217C131.732 464.82 134.549 455.084 142.689 454.77C139.245 450.059 143.315 443.778 149.263 444.406ZM172.742 491.202C170.864 491.83 168.673 492.144 166.794 491.83L167.107 496.227L172.742 491.202ZM161.472 490.574C160.22 489.945 158.968 489.317 158.029 488.375C157.402 489.003 156.463 489.631 155.524 490.26L161.159 497.483L161.472 490.574Z" fill="#F5F5F5"/>
<path fill-rule="evenodd" clip-rule="evenodd" d="M375.291 630.02C373.099 623.424 378.734 616.515 385.934 616.515C390.943 616.515 395.326 619.655 396.578 623.738C401.587 622.796 406.596 625.937 407.849 630.648C421.936 628.763 430.076 645.723 419.119 654.517C422.875 657.972 420.997 663.939 415.988 664.881C419.745 673.675 409.727 681.527 401.587 678.072L393.761 685.924L397.205 710.735L385.621 710.421L386.561 688.75L379.047 676.816C370.282 680.585 359.951 674.617 359.951 664.567C359.951 660.798 361.829 657.343 364.333 654.831C357.759 650.434 360.577 640.698 368.716 640.384C365.273 635.673 369.342 629.391 375.291 630.02ZM398.77 676.816C396.891 677.444 394.7 677.758 392.822 677.444L393.135 681.841L398.77 676.816ZM387.5 676.188C386.248 675.559 384.995 674.931 384.056 673.989C383.43 674.617 382.491 675.245 381.552 675.873L387.187 683.097L387.5 676.188Z" fill="#F5F5F5"/>
<rect width="1440" height="800" fill="url(#paint0_linear)"/>
<defs>
<linearGradient id="paint0_linear" x1="720" y1="655.344" x2="720" y2="800" gradientUnits="userSpaceOnUse">
<stop stop-color="white" stop-opacity="0"/>
<stop offset="1" stop-color="white"/>
</linearGradient>
</defs>
</svg>
