<svg width="610" height="120" viewBox="0 0 610 120" fill="none" xmlns="http://www.w3.org/2000/svg">
<path d="M107.982 0H131.978V120H107.982V0Z" fill="#041C42"/>
<path d="M311.948 24H335.944V120H311.948V24Z" fill="#041C42"/>
<path d="M275.954 0H371.938V24H275.954V0Z" fill="#041C42"/>
<path d="M0 0H23.996V120H0V0Z" fill="#041C42"/>
<path d="M41.9931 0H23.996V84H41.9931C41.9932 84 41.9929 84 41.9931 84C65.1852 84 83.9866 65.196 83.9866 42C83.9866 18.804 65.1852 0 41.9931 0C41.9932 0 41.9929 0 41.9931 0Z" fill="#041C42"/>
<path d="M266.444 92.4328C255.77 109.017 237.15 120 215.965 120C182.833 120 155.975 93.1371 155.975 60C155.975 26.8629 182.833 0 215.965 0C237.15 0 255.77 10.9833 266.444 27.5672L243.084 36.3286C236.486 28.7731 226.783 24 215.965 24C196.086 24 179.971 40.1177 179.971 60C179.971 79.8822 196.086 96 215.965 96C226.783 96 236.486 91.2269 243.084 83.6714L266.444 92.4328Z" fill="#041C42"/>
<path d="M503.917 60C503.917 93.1371 477.058 120 443.927 120C410.795 120 383.937 93.1371 383.937 60C383.937 26.8629 410.795 0 443.927 0C477.058 0 503.917 26.8629 503.917 60Z" fill="#041C42"/>
<path d="M598.678 29.2425L607.049 9.61322C584.624 -3.50399 564.794 -0.54218 553.846 3.10693C542.898 6.75605 534.748 20.2371 533.342 33.3757C531.103 54.3008 546.927 63.4371 557.975 67.2681C569.023 71.0991 586.709 73.4931 584.978 86.6417C583.64 96.8063 574.815 98.2113 564.447 98.3686C552.929 98.5434 539.803 86.0276 539.803 86.0276L527.913 101.544C544.151 123.445 579.894 126.121 598.427 108.143C607.07 99.7597 610.448 92.8646 609.953 80.8327C609.159 61.5242 586.091 51.5521 576.483 50.0611C566.874 48.5702 554.88 40.9673 557.975 31.0901C560.43 23.2556 566.45 20.9116 576.483 21.1222C586.515 21.3329 598.678 29.2425 598.678 29.2425Z" fill="#041C42"/>
</svg>
