<svg width="190" height="38" viewBox="0 0 190 38" fill="none" xmlns="http://www.w3.org/2000/svg">
<path d="M33.6338 0H41.108V37.377H33.6338V0Z" fill="white"/>
<path d="M97.1644 7.47541H104.639V37.377H97.1644V7.47541Z" fill="white"/>
<path d="M85.9531 0H115.85V7.47541H85.9531V0Z" fill="white"/>
<path d="M0 0H7.47418V37.377H0V0Z" fill="white"/>
<path d="M13.0798 0H7.47418V26.1639H13.0798C13.0799 26.1639 13.0798 26.1639 13.0798 26.1639C20.3036 26.1639 26.1598 20.3069 26.1598 13.082C26.1598 5.857 20.3036 0 13.0798 0C13.0799 0 13.0798 0 13.0798 0Z" fill="white"/>
<path d="M82.9905 28.7905C79.6659 33.956 73.8661 37.377 67.2675 37.377C56.9478 37.377 48.582 29.0099 48.582 18.6885C48.582 8.36714 56.9478 0 67.2675 0C73.8661 0 79.6659 3.42102 82.9905 8.58649L75.7145 11.3155C73.6593 8.96212 70.637 7.47541 67.2675 7.47541C61.0757 7.47541 56.0562 12.4957 56.0562 18.6885C56.0562 24.8814 61.0757 29.9016 67.2675 29.9016C70.637 29.9016 73.6593 28.4149 75.7145 26.0616L82.9905 28.7905Z" fill="white"/>
<path d="M156.958 18.6885C156.958 29.0099 148.592 37.377 138.272 37.377C127.953 37.377 119.587 29.0099 119.587 18.6885C119.587 8.36714 127.953 0 138.272 0C148.592 0 156.958 8.36714 156.958 18.6885Z" fill="white"/>
<path d="M186.474 9.10832L189.081 2.99428C182.096 -1.09141 175.92 -0.168876 172.51 0.967733C169.1 2.10434 166.561 6.30336 166.123 10.3957C165.426 16.9134 170.355 19.7591 173.796 20.9524C177.237 22.1456 182.745 22.8913 182.206 26.9868C181.79 30.1528 179.041 30.5904 175.812 30.6394C172.224 30.6938 168.136 26.7955 168.136 26.7955L164.432 31.6285C169.49 38.4501 180.623 39.2835 186.395 33.684C189.087 31.0727 190.14 28.925 189.986 25.1774C189.738 19.1633 182.553 16.0572 179.56 15.5928C176.568 15.1284 172.832 12.7603 173.796 9.6838C174.56 7.24355 176.436 6.51345 179.56 6.57906C182.685 6.64466 186.474 9.10832 186.474 9.10832Z" fill="white"/>
</svg>
