<svg width="550" height="429" viewBox="0 0 550 429" fill="none" xmlns="http://www.w3.org/2000/svg">
<path fill-rule="evenodd" clip-rule="evenodd" d="M268.006 22.8128V0H284.788V22.8128H427.696V0H445.002V22.8128H484.073C488.417 22.8128 491.939 26.3348 491.939 30.6793V135.041C491.939 139.386 488.417 142.908 484.073 142.908H233.394C229.049 142.908 225.527 139.386 225.527 135.041V30.6793C225.527 26.3348 229.049 22.8128 233.394 22.8128H268.006Z" fill="#155D9C"/>
<path d="M241.26 46.4123C241.26 42.0678 244.782 38.5458 249.127 38.5458H468.34C472.684 38.5458 476.206 42.0678 476.206 46.4123V119.308C476.206 123.653 472.684 127.175 468.34 127.175H249.127C244.782 127.175 241.26 123.653 241.26 119.308V46.4123Z" fill="#D8E8FF"/>
<path fill-rule="evenodd" clip-rule="evenodd" d="M395.705 59.2609C394.866 64.5052 398.852 67.2148 401.212 67.914C400.426 66.5155 399.305 62.6395 402.261 59.2609C405.932 55.0655 403.572 49.2967 400.688 46.9368C401.254 50.1911 400.063 51.6131 398.683 53.2625C397.505 54.6699 396.188 56.2428 395.705 59.2609ZM430.318 71.0606H372.106C372.106 81.287 377.875 101.845 400.95 102.264C411.084 102.449 417.948 98.4922 422.474 93.1006C433.025 103.26 440.654 100.317 443.167 97.5444C445.701 94.4852 449.775 86.6362 445.789 79.7137C442.022 73.1706 433.897 75.0141 429.697 77.0072C430.099 74.8356 430.289 72.8056 430.318 71.0606ZM428.223 82.649C427.47 84.8525 426.487 87.0761 425.231 89.195C429.245 92.414 436.918 96.7229 440.282 91.7757C443.848 86.5313 441.768 82.9477 440.282 81.8115C438.562 80.2627 433.775 78.3074 428.223 82.649ZM370.533 104.887H400.95H432.416C430.143 108.033 420.668 114.274 400.95 114.064C381.231 113.854 372.456 107.858 370.533 104.887ZM308.388 52.181L338.018 75.5183L345.36 81.287L338.018 87.0558L308.388 111.442L301.046 100.167L320.187 87.0558H270.104V75.5183H320.187L301.046 66.6029L308.388 52.181Z" fill="#155D9C"/>
<path d="M342.373 194.079C327.897 208.332 318.098 217.24 300.282 233.721L309.413 248.642C315.723 249.087 328.513 245.292 336.583 235.948C345.046 226.149 339.404 216.349 336.583 210.559C342.002 204.694 353.286 193.633 350.613 190.293C347.941 186.952 344.378 191.852 342.373 194.079Z" fill="#D8E8FF"/>
<path d="M173.853 349.84L204.586 428.901H46.4439H0C1.32697 390.34 31.5155 355.102 46.4439 342.304C69.3933 325.775 94.4745 320.037 106.15 319.329L131.093 316.434C165.301 317.681 209.634 287.705 227.525 272.561C238.586 263.504 264.094 243.832 277.634 237.596C282.076 235.551 286.207 235.654 289.883 236.986L299.459 228.242L317.944 258.976L308.49 265.212C307.962 276.298 300.931 292.868 277.634 312.871C242.357 343.159 193.748 350.137 173.853 349.84Z" fill="#155D9C"/>
<path d="M87.1513 292.07C91.4272 291.179 92.1993 282.79 92.0508 278.707L84.7017 231.048L143.051 221.694C149.806 224.293 162.426 226.549 158.863 214.791C155.3 203.032 136.741 198.162 127.907 197.197C134.677 195.059 138.894 190.961 140.156 189.179C142.383 186.804 143.273 181.652 129.02 180.048C114.767 178.445 101.85 187.843 97.1732 192.743C99.9942 186.061 102.563 174.169 90.2693 180.048C77.9759 185.928 74.4572 201.354 74.2345 208.332C72.0073 203.878 66.7513 198.934 63.5444 214.791C60.3374 230.647 70.671 253.17 76.2386 262.45C78.0945 272.694 82.8753 292.961 87.1513 292.07Z" fill="#155D9C"/>
<path d="M70.894 261.114C70.0031 252.205 77.204 255.472 80.9158 258.218V227.485L117.662 204.101L146.169 221.249C166.302 259.911 150.4 288.878 139.933 298.528C134.403 299.565 129.284 299.762 124.566 299.307L130.134 317.013C119.088 326.99 108.16 323.843 104.077 321.022L91.0698 280.712C86.738 275.389 83.8216 269.878 82.2521 265.568C81.3613 267.884 80.0992 269.057 79.5796 269.354C77.0556 270.319 71.7848 270.022 70.894 261.114Z" fill="#D8E8FF"/>
<path d="M105.636 291.847C111.872 297.014 120.855 298.899 124.566 299.196L129.02 313.45C114.589 309.174 107.418 297.266 105.636 291.847Z" fill="#A0B6CB"/>
<path d="M91.3831 264.677C86.3944 267.706 82.3263 261.633 80.9158 258.218L77.3525 226.149L116.549 200.76L148.173 214.791L148.396 223.253C131.827 220.937 121.003 215.236 114.545 212.564C116.772 214.791 123.007 218.799 121.003 222.585C119.284 225.831 114.693 224.887 112.763 224.367C109.274 223.773 100.915 222.763 95.3918 223.476C89.8686 224.189 89.6756 228.227 90.2695 230.157C92.7193 240.402 96.3717 261.648 91.3831 264.677Z" fill="#155D9C"/>
<path d="M130.134 317.013C120.513 323.427 108.457 321.615 103.632 319.908C98.1088 320.443 95.2433 321.17 94.501 321.467C95.9263 324.496 98.8066 327.332 100.069 328.371C104.077 331.118 114.678 336.077 125.012 333.939C135.345 331.801 138.226 321.615 138.374 316.79C134.811 317.013 133.252 317.013 130.134 317.013Z" fill="#041C42"/>
<path d="M114.099 231.494C114.277 229.89 112.54 229.294 110.536 229.044C108.531 228.793 106.305 229.489 104.077 230.38C101.85 231.271 99.9203 234.166 98.9553 235.502C98.2871 236.319 97.1736 238.13 98.0644 238.843C99.3096 239.839 100.714 238.141 101.705 236.891C105.451 232.162 108.256 232.162 109.645 232.162C111.649 232.162 113.921 233.097 114.099 231.494Z" fill="#041C42"/>
<path d="M137.705 227.485C135.389 226.238 133.028 226.223 132.137 226.371C128.218 226.371 125.011 229.638 123.897 231.271C123.452 233.052 122.829 237.64 125.68 243.52C129.243 250.869 133.602 252.772 134.142 253.096C135.256 253.764 139.041 254.21 137.482 257.327C136.235 259.822 132.36 260.891 130.579 261.113C129.465 261.188 127.193 261.024 127.015 259.777C126.837 258.53 127.832 258.515 128.351 258.664C128.871 258.738 130.044 258.886 130.579 258.886C131.247 258.886 132.961 258.508 133.696 257.773C134.431 257.038 134.365 256.437 133.696 255.991C131.915 254.803 127.282 251.582 123.897 245.524C120.512 239.466 120.557 232.05 121.448 230.157C123.437 225.926 127.461 223.699 133.474 223.253C138.284 222.897 139.784 224.887 139.932 225.926C140.155 226.965 140.021 228.732 137.705 227.485Z" fill="#041C42"/>
<path d="M113.431 265.122C117.885 268.463 120.78 268.908 122.339 269.131C125.546 269.666 129.911 268.983 132.138 269.576C134.365 270.17 138.33 272.917 136.37 279.153C134.41 285.389 128.427 286.948 125.68 286.948C122.117 286.948 113.386 285.611 106.972 280.266C100.558 274.921 102.667 268.983 104.523 266.681C106.007 265.048 109.868 262.45 113.431 265.122Z" fill="#041C42"/>
<path d="M105.859 275.812C107.418 278.93 116.326 284.72 124.566 284.72C124.566 280.044 114.322 271.358 105.859 275.812Z" fill="#D8E8FF"/>
<path d="M106.973 245.301C107.027 244.382 107.26 243.672 107.588 243.129C108.711 241.268 111.541 241.938 112.61 243.83C113.2 244.875 113.595 246.253 113.431 247.974C113.231 250.072 112.415 251.008 111.54 251.346C110.341 251.81 109.075 250.947 108.336 249.894C107.56 248.79 106.861 247.2 106.973 245.301Z" fill="#041C42"/>
<path d="M134.154 237.952C134.208 237.032 134.442 236.322 134.77 235.779C135.893 233.918 138.723 234.588 139.792 236.481C140.382 237.526 140.777 238.904 140.613 240.624C140.413 242.723 139.597 243.658 138.722 243.997C137.522 244.461 136.256 243.598 135.517 242.545C134.742 241.44 134.043 239.851 134.154 237.952Z" fill="#041C42"/>
<path d="M57.5317 376.253V429H60.6496V376.253C60.6496 375.733 60.3378 374.694 59.0907 374.694C57.8435 374.694 57.5317 375.733 57.5317 376.253Z" fill="#041C42"/>
<path d="M445.58 204.741C453.486 199.235 471.585 192.924 480.733 211.729C489.881 230.534 490.095 243.5 488.78 247.729C486.21 256 486.578 265.391 497.251 273.353C507.924 281.316 514.545 295.589 516.522 301.73C517.51 304.201 518.281 312.5 516.522 317.401C513.255 326.5 518.758 330.398 522.35 335.214C527.586 340.672 536.32 355.854 529.367 372.921L522.35 364.953L338.214 374.578C334.755 372.743 327.202 366.785 324.66 357.637C322.119 348.488 329.39 331.095 333.343 323.542C338.002 317.189 347.235 301.688 346.896 290.506C346.472 276.53 351.131 265.73 357.908 262.553C364.684 259.377 371.037 247.094 371.249 241.8C371.461 236.506 378.798 212.522 392.426 202.411C405.555 192.67 434.78 181.87 445.58 204.741Z" fill="#1A4571"/>
<path d="M448.968 312.107C458.921 311.048 484.714 315.241 508.262 340.483C513.61 346.216 518.287 352.916 522.35 360.069C531.273 375.911 549.12 411.791 549.12 428.579H522.35H317.46C318.166 406.061 335.884 364.201 357.06 343.236C376.685 323.808 405.132 314.718 420.167 312.107H448.968Z" fill="#155D9C"/>
<path d="M427.791 336.248L419.955 311.895C416.228 312.403 411.202 313.801 409.155 314.436L425.673 351.919L463.791 313.589C458.37 311.556 451.791 311.612 449.179 311.895L427.791 336.248Z" fill="#041C42"/>
<path d="M453.414 255.777C457.72 252.882 465.866 250.355 464.003 263.4C462.139 276.445 454.473 272.93 450.873 269.541L448.967 312.107L427.79 336.248L419.955 312.107L423.132 297.746C418.576 299.728 413.603 300.816 408.308 300.46C385.817 298.946 381.202 255.141 385.437 232.906L441.979 211.517L458.497 243.706L453.414 255.777Z" fill="#D8E8FF"/>
<path d="M416.567 226.764C435.033 226.426 440.708 215.752 443.038 210.67C440.794 221.047 441.414 230.364 443.885 234.176C446.638 238.424 448.967 238.412 451.932 241.376C456.337 245.781 454.756 252.812 453.414 255.777L465.062 250.059L443.038 208.341L382.049 227.188L382.896 250.906C386.425 243 398.101 227.103 416.567 226.764Z" fill="#1A4571"/>
<path d="M427.791 239.682C427.791 238.158 429.485 237.776 430.544 237.776C431.815 237.776 434.737 237.861 437.956 239.047C441.175 240.233 443.25 242.506 443.885 243.494C444.309 243.988 444.987 245.231 444.309 246.247C443.631 247.264 442.474 246.671 441.979 246.247C440.709 245.047 437.871 242.562 436.685 242.224C435.499 241.885 431.532 241.659 429.697 241.588C429.062 241.588 427.791 241.207 427.791 239.682Z" fill="#041C42"/>
<path d="M399.414 237.353C399.753 238.369 401.108 238.341 401.743 238.2C404.708 237.635 410.318 235.543 413.179 238.623C415.932 241.588 413.92 244.341 412.543 246.671C410.616 249.932 404.284 254.718 401.743 256.2C399.202 257.682 398.355 258.106 398.355 258.953C398.355 259.8 398.99 260.647 402.167 262.977C405.343 265.306 409.79 265.941 410.637 265.941C411.485 265.941 412.876 266.183 413.179 264.671C413.306 264.035 412.967 263.4 412.332 263.188L408.096 262.765C406.402 262.341 402.929 260.308 402.59 259.8C402.252 259.292 402.732 258.882 403.014 258.741C405.767 257.047 411.543 252.512 414.026 248.788C416.991 244.341 417.384 243.07 417.626 241.376C417.838 239.894 417.414 238.835 417.202 238.412C416.355 236.506 413.433 234.303 409.367 233.964C405.301 233.626 401.743 234.812 400.473 235.447C399.979 235.659 399.075 236.336 399.414 237.353Z" fill="#041C42"/>
<path d="M398.991 246.882C399.16 244.849 401.038 244.341 401.955 244.341C402.873 244.553 404.412 245.739 403.226 248.788C402.04 251.838 400.332 251.188 399.626 250.482C399.344 250.129 398.821 248.915 398.991 246.882Z" fill="#041C42"/>
<path d="M427.189 250.271C427.358 248.238 429.236 247.729 430.154 247.729C431.071 247.941 432.61 249.127 431.424 252.176C430.238 255.226 428.53 254.576 427.824 253.871C427.542 253.518 427.019 252.303 427.189 250.271Z" fill="#041C42"/>
<path d="M417.031 281.422C413.473 283.116 409.831 282.057 408.56 281.21C405.596 279.516 404.026 277.99 403.266 277.61C402.843 277.398 401.995 277.61 401.784 278.245C401.424 279.323 403.548 281.069 404.748 281.845C406.795 283.186 411.906 285.615 415.972 284.598C420.038 283.582 422.607 280.645 423.384 279.304C424.796 277.328 427.28 273.205 425.925 272.528C424.57 271.85 423.949 272.81 423.807 273.375C423.031 275.351 420.589 279.728 417.031 281.422Z" fill="#041C42"/>
<path d="M375.057 364.202V428.579H372.11V364.202C372.037 363.072 372.268 362.084 373.578 362.084C374.889 362.084 375.094 363.072 375.057 364.202Z" fill="#041C42"/>
<path d="M490.257 364.202V428.579H487.309V364.202C487.237 363.072 487.468 362.084 488.778 362.084C490.088 362.084 490.294 363.072 490.257 364.202Z" fill="#041C42"/>
</svg>
